<svg width="25" height="24" viewBox="0 0 25 24" fill="none" xmlns="http://www.w3.org/2000/svg">
<path fill-rule="evenodd" clip-rule="evenodd" d="M11.0954 6.70538C10.7058 6.31581 10.0742 6.31581 9.68463 6.70538C9.29535 7.09466 9.29501 7.72569 9.68386 8.11538L13.56 12L9.68386 15.8846C9.29501 16.2743 9.29535 16.9053 9.68463 17.2946C10.0742 17.6842 10.7058 17.6842 11.0954 17.2946L16.39 12L11.0954 6.70538Z" fill="white"/>
<mask id="mask0_542_605" style="mask-type:luminance" maskUnits="userSpaceOnUse" x="9" y="6" width="8" height="12">
<path fill-rule="evenodd" clip-rule="evenodd" d="M11.0954 6.70538C10.7058 6.31581 10.0742 6.31581 9.68463 6.70538C9.29535 7.09466 9.29501 7.72569 9.68386 8.11538L13.56 12L9.68386 15.8846C9.29501 16.2743 9.29535 16.9053 9.68463 17.2946C10.0742 17.6842 10.7058 17.6842 11.0954 17.2946L16.39 12L11.0954 6.70538Z" fill="white"/>
</mask>
<g mask="url(#mask0_542_605)">
<rect x="0.980011" width="24" height="24" fill="white"/>
</g>
</svg>
