<svg width="12" height="13" viewBox="0 0 12 13" fill="none" xmlns="http://www.w3.org/2000/svg">
<path fill-rule="evenodd" clip-rule="evenodd" d="M0.197388 6.19401C0.197388 9.40847 2.8054 12.0165 6.01986 12.0165C8.50533 12.0165 10.6939 10.4438 11.5093 8.13903C11.6412 7.76982 11.2846 7.41318 10.9154 7.54358C10.3954 7.72897 9.84548 7.82324 9.28145 7.82324C7.96499 7.82324 6.60696 7.72897 5.55235 6.66129C4.49774 5.5936 4.39064 4.31667 4.39064 2.93242C4.39064 2.3684 4.4849 1.81852 4.67029 1.29848C4.78027 0.982694 4.53675 0.676331 4.23353 0.676331C4.18168 0.676331 4.12827 0.685757 4.07485 0.70461C1.77005 1.52001 0.197388 3.70854 0.197388 6.19401Z" fill="black"/>
</svg>
