<svg width="16" height="15" viewBox="0 0 16 15" fill="none" xmlns="http://www.w3.org/2000/svg">
<path fill-rule="evenodd" clip-rule="evenodd" d="M11.2634 0.311951C12.5474 0.311951 13.1246 0.42741 13.6083 0.646144L13.7586 0.718636L13.8328 0.757431C14.3763 1.04811 14.8029 1.47467 15.0935 2.0182L15.1694 2.16704C15.3869 2.61752 15.5123 3.123 15.5352 4.20488L15.539 4.58758V10.7115L15.5352 11.0942C15.5136 12.116 15.4005 12.6236 15.2048 13.0564L15.1323 13.2067L15.0935 13.2809C14.8029 13.8244 14.3763 14.251 13.8328 14.5417L13.6839 14.6176C13.2334 14.835 12.728 14.9604 11.6461 14.9833L11.2634 14.9871H5.13946L4.75676 14.9833C3.73498 14.9617 3.22735 14.8487 2.7946 14.6529L2.64426 14.5805L2.57008 14.5417C2.02655 14.251 1.59999 13.8244 1.30931 13.2809L1.23342 13.132C1.00385 12.6565 0.876908 12.1198 0.864788 10.9085L0.863831 4.58758C0.863831 3.30358 0.97929 2.72638 1.19802 2.24272L1.27052 2.09238L1.30931 2.0182C1.59999 1.47467 2.02655 1.04811 2.57008 0.757431L2.71892 0.681537C3.19443 0.451966 3.73121 0.325028 4.9425 0.312908L11.2634 0.311951ZM11.4314 1.98013L5.13946 1.97959L4.81552 1.98181L4.5372 1.98872L4.29907 2.00069C4.22579 2.00557 4.15831 2.01136 4.09571 2.01811L3.9217 2.04135C3.73371 2.072 3.59457 2.11529 3.46555 2.17391L3.35653 2.22797C3.10362 2.36323 2.91511 2.55174 2.77985 2.80465L2.72579 2.91367C2.66717 3.04269 2.62388 3.18183 2.59323 3.36982L2.56999 3.54383C2.56324 3.60643 2.55745 3.67391 2.55257 3.74719L2.5406 3.98532L2.53369 4.26364C2.53294 4.31368 2.53238 4.36562 2.53201 4.41957V10.8795L2.53695 11.1963C2.55342 11.8285 2.60859 12.1245 2.72285 12.3789L2.77985 12.4944C2.91511 12.7473 3.10362 12.9359 3.35653 13.0711L3.46555 13.1252C3.59457 13.1838 3.73371 13.2271 3.9217 13.2577L4.09571 13.281C4.15831 13.2877 4.22579 13.2935 4.29907 13.2984L4.5372 13.3104L4.81552 13.3173L5.13946 13.3195L11.4314 13.319L11.7318 13.3144L11.9894 13.305C12.1083 13.2991 12.2132 13.2911 12.3071 13.281L12.4811 13.2577C12.6691 13.2271 12.8083 13.1838 12.9373 13.1252L13.0463 13.0711C13.2992 12.9359 13.4877 12.7473 13.623 12.4944L13.6771 12.3854C13.7357 12.2564 13.779 12.1173 13.8096 11.9293L13.8329 11.7553C13.8396 11.6927 13.8454 11.6252 13.8503 11.5519L13.8623 11.3138L13.8692 11.0354L13.8714 10.7115L13.8708 4.41957L13.8663 4.11912L13.8569 3.86157C13.8509 3.74262 13.843 3.63772 13.8329 3.54383L13.8096 3.36982C13.779 3.18183 13.7357 3.04269 13.6771 2.91367L13.623 2.80465C13.4877 2.55174 13.2992 2.36323 13.0463 2.22797L12.9373 2.17391C12.8083 2.11529 12.6691 2.072 12.4811 2.04135L12.3071 2.01811C12.2445 2.01136 12.1771 2.00557 12.1038 2.00069L11.8656 1.98872L11.5873 1.98181C11.5373 1.98106 11.4854 1.9805 11.4314 1.98013ZM8.94764 4.68826C8.91666 5.08797 8.949 5.49202 8.93895 5.89418C8.93025 6.2534 9.05253 6.35476 9.37806 6.16156C9.79 5.91728 10.2052 5.67816 10.6239 5.44556C11.1013 5.18035 11.5209 5.27138 11.7413 5.6768C11.9529 6.06646 11.8198 6.45584 11.3693 6.72512C10.9451 6.97919 10.5152 7.2232 10.0856 7.46829C9.81391 7.62345 9.80331 7.77181 10.0824 7.93104C10.512 8.17587 10.9418 8.42042 11.3663 8.67395C11.8179 8.9435 11.9532 9.33234 11.7434 9.72145C11.5266 10.1231 11.1016 10.2149 10.6258 9.95161C10.234 9.73504 9.84977 9.50353 9.45957 9.28343C9.02726 9.03996 8.95253 9.08045 8.9471 9.56059L8.93721 10.1644C8.93548 10.3656 8.93786 10.5665 8.95199 10.7665C8.98351 11.2078 8.84656 11.5475 8.47647 11.7909H7.91888C7.54934 11.5235 7.417 11.1657 7.45233 10.7114C7.48358 10.3122 7.4507 9.90813 7.46102 9.50652C7.47026 9.14729 7.35016 9.04621 7.02409 9.24023C6.61296 9.48532 6.19777 9.7239 5.77931 9.95595C5.30107 10.2209 4.88369 10.1304 4.66197 9.72499C4.44948 9.33669 4.58181 8.94676 5.03179 8.67775C5.44264 8.43238 5.85838 8.19516 6.27629 7.96175C6.58824 7.78757 6.60998 7.62698 6.28282 7.44438C5.8649 7.21097 5.44943 6.97321 5.03858 6.72811C4.5848 6.4572 4.45002 6.07298 4.65898 5.68413C4.87772 5.27709 5.29645 5.18389 5.77387 5.448C6.16543 5.66457 6.54911 5.89635 6.93877 6.11618C7.38576 6.36834 7.4507 6.32758 7.45369 5.7988C7.45586 5.42817 7.47841 5.05536 7.44798 4.6869C7.40342 4.14507 7.64743 3.81194 7.95095 3.69482C8.41316 3.5163 9.01394 3.83829 8.94764 4.68826Z" fill="black"/>
</svg>
