<svg width="12" height="16" viewBox="0 0 12 16" fill="none" xmlns="http://www.w3.org/2000/svg">
<path fill-rule="evenodd" clip-rule="evenodd" d="M8.8697 12.4759C9.21179 12.4759 9.49373 12.7334 9.53227 13.0652L9.53675 13.143V14.0869L10.2038 14.0875C10.9071 14.0875 11.4833 14.6317 11.5343 15.322L11.5379 15.4216H0.865051C0.865051 14.6848 1.46235 14.0875 2.19916 14.0875L2.86621 14.0869V13.143C2.86621 12.7746 3.16486 12.4759 3.53327 12.4759C3.87536 12.4759 4.1573 12.7334 4.19583 13.0652L4.20032 13.143V14.0869H5.53443V13.2036C5.53443 12.8352 5.83308 12.5366 6.20148 12.5366C6.54357 12.5366 6.82552 12.7941 6.86405 13.1258L6.86854 13.2036V14.0869H8.20265V13.143C8.20265 12.7746 8.5013 12.4759 8.8697 12.4759ZM5.9106 0.440656C6.04255 0.256028 6.36026 0.256028 6.49221 0.440656L10.266 5.72235C10.6405 6.264 10.8682 7.06547 10.8709 7.69209V7.7061C10.8709 9.9094 8.72336 11.6898 6.09638 11.6411C3.80532 11.5989 1.8589 10.11 1.56889 8.1937C1.54831 8.05779 1.53644 7.92321 1.53301 7.78996C1.51585 7.12886 1.74464 6.28958 2.13994 5.71813L5.9106 0.440656ZM6.20148 5.80538C5.09627 5.80538 4.20032 6.85066 4.20032 8.14007C4.20032 9.42948 5.09627 10.4748 6.20148 10.4748C7.30669 10.4748 8.20265 9.42948 8.20265 8.14007C8.20265 6.85066 7.30669 5.80538 6.20148 5.80538Z" fill="black"/>
</svg>
