<svg width="11" height="14" viewBox="0 0 11 14" fill="none" xmlns="http://www.w3.org/2000/svg">
<path fill-rule="evenodd" clip-rule="evenodd" d="M2.94393 1.49207L3.05192 2.94709C3.08547 3.39912 2.76361 3.80007 2.31503 3.86508L1.83939 3.934C1.36768 4.00235 0.929874 3.67537 0.861521 3.20366C0.849003 3.11727 0.849663 3.02949 0.863477 2.9433L1.0985 1.47706C1.16037 1.09106 1.47398 0.794854 1.86288 0.755097L2.04246 0.736738C2.49315 0.690665 2.89586 1.01867 2.94193 1.46936C2.9427 1.47692 2.94337 1.48449 2.94393 1.49207ZM3.90593 5.03239L5.52184 10.1383C5.57878 10.3183 5.5829 10.5023 5.54287 10.6737L8.73419 9.93661C9.16248 9.83782 9.60561 10.0264 9.83138 10.4035L10.6627 11.792C11.0466 12.4334 10.838 13.2646 10.1966 13.6486C9.99114 13.7716 9.75668 13.8379 9.51719 13.8407L8.89116 13.848L3.24414 13.9072C2.50737 13.915 1.90383 13.324 1.8961 12.5872L1.89608 11.5304C1.39322 11.4845 0.992273 11.0693 0.976699 10.5518C0.976407 10.5421 0.976254 10.5324 0.976241 10.5227L0.9695 5.61068C0.968877 5.1569 1.27 4.75803 1.70659 4.63433L2.66356 4.36318C3.19048 4.21388 3.74068 4.51025 3.90593 5.03239Z" fill="black"/>
</svg>
