<svg width="16" height="17" viewBox="0 0 16 17" fill="none" xmlns="http://www.w3.org/2000/svg">
<path fill-rule="evenodd" clip-rule="evenodd" d="M12.5866 6.05614C13.5896 6.05614 13.9533 6.16057 14.32 6.35666C14.6866 6.55276 14.9744 6.84052 15.1705 7.20719C15.3666 7.57385 15.471 7.93755 15.471 8.94051V13.918C15.471 14.921 15.3666 15.2847 15.1705 15.6514C14.9744 16.018 14.6866 16.3058 14.32 16.5019C13.9533 16.698 13.5896 16.8024 12.5866 16.8024H3.35538C2.35242 16.8024 1.98872 16.698 1.62206 16.5019C1.25539 16.3058 0.967628 16.018 0.771533 15.6514C0.575437 15.2847 0.471008 14.921 0.471008 13.918V8.94051C0.471008 7.93755 0.575437 7.57385 0.771533 7.20719C0.967628 6.84052 1.25539 6.55276 1.62206 6.35666C1.98872 6.16057 2.35242 6.05614 3.35538 6.05614H12.5866ZM12.096 7.70242H3.84601C3.22469 7.70242 2.72101 8.2061 2.72101 8.82742V11.0774C2.72101 11.6987 3.22469 12.2024 3.84601 12.2024H12.096C12.7173 12.2024 13.221 11.6987 13.221 11.0774V8.82742C13.221 8.2061 12.7173 7.70242 12.096 7.70242ZM7.97101 8.51764C8.79944 8.51764 9.47101 9.18921 9.47101 10.0176C9.47101 10.8461 8.79944 11.5176 7.97101 11.5176C7.14258 11.5176 6.47101 10.8461 6.47101 10.0176C6.47101 9.18921 7.14258 8.51764 7.97101 8.51764ZM12.9747 4.14887C13.2454 4.15487 13.4617 4.37603 13.4617 4.64679C13.4617 4.91755 13.2454 5.1387 12.9747 5.14471H11.9789V6.04232H10.9821V5.14471H9.98624C9.80572 5.14871 9.63717 5.05469 9.54573 4.89899C9.4543 4.74329 9.4543 4.55029 9.54573 4.39459C9.63717 4.23889 9.80572 4.14487 9.98624 4.14887H12.9747ZM5.48963 4.14887C5.76032 4.15487 5.97663 4.37603 5.97663 4.64679C5.97663 4.91755 5.76032 5.1387 5.48963 5.14471H4.49282V6.04232H3.49699V5.14471H2.50115C2.32063 5.14871 2.15208 5.05469 2.06064 4.89899C1.96921 4.74329 1.96921 4.55029 2.06064 4.39459C2.15208 4.23889 2.32063 4.14487 2.50115 4.14887H5.48963ZM6.81147 0.267639C7.66488 0.267639 8.36941 0.969251 8.36941 1.82266V6.04232H7.37357V1.82266C7.37357 1.50372 7.13041 1.26348 6.81147 1.26348C6.49253 1.26348 6.25228 1.50372 6.25228 1.82266V2.47326C6.25629 2.65378 6.16227 2.82234 6.00657 2.91377C5.85087 3.00521 5.65787 3.00521 5.50216 2.91377C5.34646 2.82234 5.25244 2.65378 5.25645 2.47326V1.82266C5.25645 0.969251 5.95806 0.267639 6.81147 0.267639Z" fill="black"/>
</svg>
