<svg width="86" height="75" viewBox="0 0 86 75" fill="none" xmlns="http://www.w3.org/2000/svg">
<path d="M40.756 1.12208C41.2232 1.08423 41.7061 1.09916 42.1751 1.09448L45.3787 1.1789C49.0998 1.44199 52.7931 2.16491 56.3141 3.40867C57.9312 3.97997 59.5135 4.67681 61.0549 5.4271C62.2052 5.98695 63.3023 6.63817 64.39 7.30968C72.6115 12.3851 78.754 20.2017 81.8845 29.3193C82.2926 30.5079 82.5958 31.7313 82.8792 32.9544C84.9691 41.976 83.9581 51.8612 79.8788 60.2017L44.7692 60.1896L5.48355 60.1441C3.12141 55.1967 1.851 49.91 1.47535 44.4512C1.30993 42.0473 1.44299 39.5542 1.74934 37.1678C2.00855 35.1487 2.37411 33.136 2.92277 31.1734C4.51775 25.4678 7.46005 19.9756 11.362 15.5167C13.4789 13.0976 15.8166 10.884 18.4085 8.97719C23.7039 5.08144 29.9427 2.54572 36.4337 1.54538C37.8659 1.32466 39.3113 1.2182 40.756 1.12208Z" fill="black"/>
<path d="M22.3876 48.3236L23.3367 48.3249L23.3165 49.4235L22.3861 49.4513L22.3876 48.3236Z" fill="white"/>
<path d="M15.7812 38.0099C16.4223 38.0512 17.0246 38.1609 17.6497 38.3074C17.5956 38.5217 17.2839 38.8577 17.1474 39.0487L16.7116 39.6264C16.3399 39.147 16.0211 38.5652 15.7812 38.0099Z" fill="white"/>
<path d="M69.7413 37.8775C69.8325 37.8636 69.9062 37.8505 69.9975 37.8682C69.7868 38.5571 69.2888 39.3171 68.9038 39.9271L68.5013 39.4317L67.6161 38.3876C67.7554 38.296 67.9702 38.2601 68.1319 38.2141C68.667 38.0617 69.1889 37.9509 69.7413 37.8775Z" fill="white"/>
<path d="M31.6285 38.2829L33.7515 38.2668L33.7523 40.163L28.7913 40.1574L26.5117 40.1501C26.9591 39.694 27.5368 39.3914 28.1217 39.1476C29.2154 38.6916 30.4496 38.4041 31.6285 38.2829Z" fill="white"/>
<path d="M30.7134 41.0922L33.7518 41.0892L33.7653 45.5348L30.7309 45.5361L30.7134 41.0922Z" fill="white"/>
<path d="M37.404 41.099L42.8125 41.1056L42.8363 45.2169L37.3888 45.2394L37.404 41.099Z" fill="white"/>
<path d="M45.4035 41.1089L50.8515 41.0929C50.9353 41.2328 50.8715 44.8324 50.8698 45.2295L45.3909 45.225L45.4035 41.1089Z" fill="white"/>
<path d="M25.9704 41.0785L29.7803 41.0938L29.7916 45.5289L27.0862 45.5283L23.1777 45.5353C23.8959 43.9066 24.7762 42.4058 25.9704 41.0785Z" fill="white"/>
<path d="M52.7322 51.8304C53.0718 51.7949 53.4462 51.7881 53.7774 51.8781L53.8578 51.901C54.1937 51.9936 54.5104 52.1265 54.8039 52.3157C55.4727 52.747 55.9623 53.4395 56.1221 54.2223C56.2889 55.0399 56.1245 55.8022 55.6579 56.4891C55.1401 57.2513 54.4414 57.7051 53.5405 57.8733C52.8102 57.9574 52.189 57.7966 51.5672 57.407C50.8444 56.9539 50.3283 56.2882 50.1505 55.4449C49.9901 54.6838 50.1443 53.8463 50.5798 53.2011C51.0864 52.4508 51.8509 51.9941 52.7322 51.8304Z" fill="white"/>
<path d="M52.7753 52.5028C53.2936 52.4452 53.7684 52.4843 54.2316 52.74C54.8096 53.0589 55.2607 53.6153 55.4329 54.255C55.5867 54.8266 55.5049 55.4611 55.2078 55.9699C54.8201 56.6338 54.2406 56.9919 53.5102 57.1906C52.9434 57.2644 52.4082 57.1724 51.9164 56.8749C51.3823 56.5518 50.9594 55.9622 50.8273 55.3523C50.6935 54.7342 50.8185 54.0437 51.1691 53.5182C51.5588 52.9341 52.1038 52.6395 52.7753 52.5028Z" fill="black"/>
<path d="M52.9049 53.3958C53.1639 53.3749 53.3712 53.3684 53.6183 53.4672C53.9995 53.6196 54.3661 54.0047 54.5121 54.3868C54.6434 54.7306 54.6004 55.1239 54.4336 55.4464C54.1922 55.9132 53.8222 56.1521 53.3321 56.2998C53.0555 56.3148 52.8117 56.2943 52.5556 56.1789C52.1939 56.016 51.8751 55.6768 51.7493 55.2994C51.6291 54.9383 51.6453 54.5291 51.8233 54.1889C52.0587 53.7391 52.4378 53.5293 52.9049 53.3958Z" fill="white"/>
<path d="M52.9562 54.1104C53.0776 54.1089 53.2004 54.1165 53.3192 54.1438C53.4989 54.1852 53.6836 54.3221 53.7775 54.4801C53.8963 54.68 53.9114 54.8725 53.8406 55.0908C53.7684 55.3134 53.5535 55.4359 53.363 55.5423C53.2244 55.5586 53.0583 55.5712 52.9237 55.5276C52.7417 55.4688 52.5605 55.3147 52.4733 55.1441C52.3903 54.9823 52.3796 54.7339 52.4453 54.5647C52.5362 54.3311 52.7387 54.2071 52.9562 54.1104Z" fill="black"/>
<path d="M31.3007 51.6122C31.9788 51.5628 32.5665 51.7008 33.1302 52.0849C33.811 52.5489 34.3491 53.3061 34.5008 54.123C34.6539 54.9468 34.4075 55.7723 33.9249 56.4453C33.3627 57.2294 32.7043 57.5527 31.7672 57.7019C31.4703 57.7136 31.1421 57.7225 30.8512 57.6564C29.9431 57.4498 29.2431 56.9315 28.7667 56.1285C28.3993 55.5088 28.2375 54.7121 28.4265 54.0058C28.561 53.5027 28.7515 53.0819 29.0868 52.6788C29.6617 51.9877 30.423 51.6883 31.3007 51.6122Z" fill="white"/>
<path d="M31.2561 52.2826C31.7936 52.2515 32.328 52.355 32.7789 52.6638C33.3083 53.0263 33.7336 53.6335 33.8376 54.2689C33.9449 54.9239 33.7811 55.528 33.3964 56.0636C32.9643 56.6652 32.4041 56.8978 31.6962 57.013C31.136 57.0413 30.5499 56.972 30.0766 56.6436C29.5373 56.2693 29.1874 55.6826 29.0868 55.0362C28.9879 54.4007 29.1528 53.729 29.5386 53.2135C29.9878 52.6131 30.525 52.38 31.2561 52.2826Z" fill="black"/>
<path d="M31.3226 53.1742C31.6431 53.1636 31.9027 53.1769 32.1874 53.3488C32.5289 53.5551 32.8358 53.9183 32.9259 54.3131C33.0134 54.6967 32.9242 55.1498 32.7157 55.4776C32.4636 55.874 32.1303 56.0282 31.6921 56.128C31.3387 56.1342 31.0411 56.1222 30.7212 55.9438C30.3883 55.7582 30.1302 55.4338 30.04 55.0621C29.9316 54.6154 29.9962 54.1768 30.256 53.7935C30.5154 53.4107 30.8898 53.2624 31.3226 53.1742Z" fill="white"/>
<path d="M31.2364 53.9304C31.3936 53.9157 31.5493 53.8975 31.701 53.9524C31.9041 54.0258 32.1016 54.2155 32.1848 54.4147C32.2503 54.5719 32.2487 54.8095 32.1826 54.9666C32.0843 55.2003 31.876 55.326 31.6561 55.4261C31.5409 55.4396 31.4181 55.438 31.3046 55.4109C31.1045 55.3633 30.8943 55.2007 30.8006 55.0183C30.7046 54.8313 30.6777 54.6365 30.7419 54.4353C30.8267 54.1692 31.0017 54.0595 31.2364 53.9304Z" fill="black"/>
<path d="M48.3839 55.2973L49.1865 55.2786C49.2941 55.503 49.3218 55.7934 49.3879 56.0358C49.6975 57.1699 50.4575 57.8699 51.4476 58.4334L35.9273 58.41L32.7458 58.3867C33.0319 58.2755 33.3323 58.1666 33.5935 58.0028C34.5338 57.4133 35.153 56.3725 35.4062 55.3158L48.3839 55.2973Z" fill="white"/>
<path d="M24.7139 46.4548L33.743 46.4798L33.7464 47.2159L28.0038 47.2061C27.6668 47.2053 26.1026 47.1283 25.8965 47.2871C25.7783 47.3781 25.7218 47.4837 25.7176 47.6331C25.7138 47.7714 25.7518 47.9254 25.8491 48.0276C25.9502 48.1337 26.0294 48.1525 26.1748 48.1667C26.948 48.2425 27.7967 48.1727 28.5764 48.1713L33.7526 48.1474L33.7494 50.8987L33.7375 51.3221C33.6455 51.3145 33.6799 51.3278 33.6006 51.2794C33.0967 50.9714 32.541 50.7587 31.9535 50.6773C30.9375 50.5365 29.8446 50.8058 29.0276 51.431C28.0421 52.1852 27.5981 53.1542 27.4372 54.3585L23.8307 54.3832C23.6045 54.0793 23.4475 53.6595 23.1971 53.3882C22.9969 53.1715 22.6699 53.2153 22.4012 53.2149L22.3895 50.3896C22.8627 50.3904 23.5926 50.5097 23.9558 50.1519C24.1879 49.9233 24.2238 49.619 24.2288 49.3118C24.2372 48.7932 24.3545 48.0207 23.9466 47.6252C23.58 47.2698 22.9276 47.3859 22.4539 47.3868L22.7158 46.4599L24.7139 46.4548Z" fill="white"/>
<path d="M35.1884 48.1156L62.2736 48.1008L62.278 48.6632L55.1255 48.6469L42.2214 48.6365L37.9853 48.6486L37.0464 48.6587C36.9222 48.6615 36.7356 48.6481 36.6213 48.6917C36.571 48.7109 36.5314 48.7311 36.4923 48.7696C36.4147 48.8456 36.3834 48.9588 36.3806 49.0646C36.3765 49.22 36.4251 49.3425 36.5378 49.4507C36.6154 49.525 36.6958 49.5557 36.8029 49.5651C37.6741 49.6414 38.625 49.5707 39.5045 49.5701L45.0834 49.5722L62.279 49.5703L62.2985 51.9951C62.3013 52.3806 62.3467 52.8286 62.2793 53.2063C62.2307 53.4796 62.1067 53.7303 61.9106 53.927C61.7288 54.1094 61.4969 54.2481 61.2442 54.3016C60.8455 54.386 60.3382 54.3309 59.9275 54.3305L57.1157 54.3231C57.011 53.6794 56.7827 53.1043 56.4017 52.5718C55.778 51.7001 54.8067 51.0903 53.7455 50.9367C52.6835 50.783 51.5979 51.042 50.7376 51.6815C49.8471 52.3435 49.3268 53.2549 49.1675 54.3493L35.4771 54.3754C35.4375 53.9108 35.27 53.3568 35.0585 52.9408C34.9499 52.727 34.7637 52.5079 34.7224 52.2698C34.6503 51.8551 34.6986 51.356 34.6979 50.9322L34.6968 48.1278L35.1884 48.1156Z" fill="white"/>
<path d="M34.6874 38.2689L56.2006 38.2864L59.268 38.2833C59.8082 38.2826 60.6552 38.1763 61.1512 38.3707C61.6026 38.5476 61.9645 38.8992 62.1437 39.3532C62.2222 39.5518 62.3182 39.9664 62.2277 40.1716C61.6905 40.2657 61.0002 40.1841 60.4487 40.181L56.5426 40.1711L40.3342 40.1747L37.7601 40.1723C37.4984 40.1717 37.0165 40.1095 36.7801 40.1927C36.657 40.2361 36.5998 40.3382 36.5346 40.4414C36.4872 40.9776 36.4045 45.6825 36.5729 45.9097C36.662 46.0299 36.7869 46.1123 36.9372 46.1308C37.1834 46.1612 37.4777 46.1305 37.7291 46.1286L39.3522 46.1237L42.0441 46.1328C42.5015 46.1342 42.9914 46.1719 43.445 46.1259C43.5262 46.1176 43.5826 46.0907 43.6412 46.0323C43.7192 45.9544 43.7535 45.9008 43.7738 45.7917C43.8389 45.4415 43.793 45.0018 43.7904 44.6437L43.7698 42.4162L43.7618 41.1492C43.8772 41.0829 44.3074 41.125 44.4579 41.1253C44.4605 41.7377 44.3889 45.6744 44.5682 45.9141C44.6642 46.0424 44.8109 46.1233 44.9701 46.1373C45.2698 46.1637 45.5903 46.1376 45.8925 46.1377L47.7245 46.1388C48.9137 46.1409 50.1477 46.216 51.3321 46.1428C51.4477 46.1356 51.5629 46.1254 51.6532 46.0449C51.7198 45.9855 51.7715 45.9166 51.7891 45.8272C51.8631 45.4547 51.7967 44.9282 51.7967 44.5412L51.7952 41.1025L62.2899 41.0936L62.2798 47.2019L34.6913 47.234L34.6874 38.2689Z" fill="white"/>
<path d="M42.7443 21.0078C42.9307 21.1136 43.1399 21.4476 43.2792 21.6217L44.7144 23.4469L50.8562 31.1956L53.6425 34.7808C53.9992 35.2286 54.3306 35.7225 54.7298 36.1327C54.8479 36.1754 54.9096 36.1917 55.0353 36.1686C55.2587 36.1275 55.3997 35.8716 55.5208 35.6938C55.219 35.2113 54.843 34.7711 54.4962 34.3203C54.0718 33.7687 53.6625 33.1977 53.1872 32.6885L57.516 27.713L59.8622 30.5133L66.935 39.0526C67.1331 39.2965 68.0203 40.2353 68.0701 40.455C67.241 41.7753 66.1715 42.95 64.9932 43.9679L69.7885 42.8138L79.8114 55.3914C79.8439 55.4572 79.8253 55.4684 79.8036 55.5362C79.4866 56.5275 79.0605 57.5084 78.6332 58.4566L54.9515 58.4308C55.6376 58.0038 56.2562 57.4589 56.6418 56.7376C56.8742 56.3027 56.9804 55.8337 57.0778 55.3546C57.0806 55.3408 57.0745 55.3212 57.0862 55.3134C57.1172 55.2926 57.4304 55.3134 57.5006 55.3134L59.9042 55.3122C60.3777 55.3116 60.92 55.3655 61.38 55.2521C61.8008 55.1483 62.2296 54.9097 62.5339 54.6006C62.8507 54.2789 63.0755 53.8587 63.1671 53.4161C63.2422 53.053 63.2194 52.6585 63.2177 52.2886L63.2144 50.7431L63.2197 45.3184L63.2115 41.3952C63.2077 40.7419 63.2852 39.9652 63.131 39.3326C63.0116 38.8424 62.7575 38.406 62.3988 38.0529C62.0213 37.6813 61.5321 37.4264 61.0052 37.353C60.3175 37.2572 59.5462 37.3196 58.8506 37.32L54.9284 37.3189L40.5498 37.3282L35.4736 37.3268C34.248 37.3267 32.979 37.2565 31.7585 37.337C30.2636 37.4356 28.7888 37.7977 27.4248 38.4172C26.6882 38.7517 25.5741 39.4872 25.3018 40.2842C25.1556 40.7122 24.6766 41.1368 24.4015 41.5079C24.081 41.9402 23.7711 42.3867 23.495 42.8487C22.9969 43.6823 22.5786 44.5753 22.1619 45.452C21.9441 45.9104 21.6585 46.4213 21.5506 46.9179C21.363 47.7809 21.4484 48.7613 21.449 49.6425L21.4396 53.0743C21.1269 53.071 20.5875 53.0002 20.3441 53.2328C20.2138 53.3573 20.1644 53.5743 20.1645 53.7485C20.1646 53.922 20.2031 54.1426 20.3378 54.2647C20.3932 54.3148 20.5165 54.426 20.5859 54.449C20.7527 54.5044 21.0509 54.4688 21.2294 54.4679L22.724 54.468C22.9846 54.6335 23.2388 55.0513 23.465 55.2888C23.9085 55.352 24.4006 55.3143 24.8501 55.3154L27.4998 55.3197L27.7183 56.0484C28.2006 57.2325 28.9799 57.9148 30.1383 58.3984C29.9313 58.4396 29.6987 58.4199 29.487 58.4198L28.3054 58.4149L24.1579 58.4066L6.7169 58.3957L5.56257 55.4853C5.64537 55.1701 8.00256 52.373 8.36852 51.921L12.2218 47.1172L15.8056 42.5375L20.3279 44.3003C20.3052 44.1785 20.0724 43.9405 19.9922 43.8357L18.5201 41.9597C18.1229 41.4458 17.7245 40.92 17.3749 40.3728L18.7572 38.6431L19.4782 38.8416L19.0723 38.2327C19.3476 37.801 19.7109 37.4001 20.0309 36.9987L22.0108 34.5469L27.6424 27.7828C27.7594 27.8352 27.8549 27.9671 27.9424 28.0595L28.6618 28.867L31.9928 32.8261C31.6175 33.3891 31.1945 33.9301 30.7659 34.4534C30.5296 34.7418 30.218 35.0459 30.0348 35.3696C29.9518 35.5163 29.9856 35.6249 30.0321 35.7737C30.1782 35.9519 30.2854 36.0273 30.5188 36.0541C30.6825 36.004 30.7697 35.9476 30.8884 35.8238C31.1916 35.5073 31.4552 35.1111 31.7265 34.7649L33.4037 32.6439L40.1794 24.1279L41.9326 21.95C42.1877 21.6379 42.4339 21.2642 42.7443 21.0078Z" fill="white"/>
<path d="M41.5781 2.9632C44.9899 2.79883 48.6032 3.22275 51.9115 4.04698L55.6498 5.17288C57.5806 5.8065 59.4415 6.67818 61.2277 7.64133C68.4654 11.5437 74.2989 17.5352 78.0043 24.8787C82.5379 33.8636 83.3561 44.7012 80.2087 54.2682L80.1654 54.2594L75.4157 48.2783L72.2909 44.406C71.799 43.7817 71.2466 43.1569 70.8333 42.4785C71.5714 42.5574 72.3115 42.8546 73.0156 43.0844L76.5516 44.2106C74.6237 42.3889 72.7588 40.3391 71.8058 37.8208L75.5061 38.7121C73.7906 36.9964 72.4178 34.9264 71.5781 32.6407C72.4105 32.6509 73.2487 32.8423 74.0756 32.9391C73.3278 31.9231 72.8178 30.8114 72.3687 29.6383C71.751 28.0248 71.3033 26.3618 71.0416 24.6539C70.6023 26.4004 70.1596 28.0841 69.5086 29.7682C69.1016 30.821 68.5887 31.9554 67.8332 32.8021L67.7912 32.8483L70.3125 32.7763L69.2232 34.8534C68.6438 35.8623 67.9376 36.864 67.162 37.7326L57.5458 26.2258L52.6005 31.8512L43.054 19.7508C42.9824 19.6456 42.9375 19.5732 42.8169 19.5184C42.7201 19.5298 42.6381 19.5401 42.5638 19.6099C42.3599 19.8018 42.1922 20.0862 42.0121 20.307L40.1833 22.6003L35.8172 28.0823L32.6403 32.0608L28.0287 26.6459C27.918 26.5221 27.8208 26.4411 27.6471 26.4303C27.5087 26.4761 27.4276 26.5254 27.3236 26.6282C27.0637 26.8851 26.8392 27.208 26.6057 27.49L25.3041 29.0312L21.0833 34.1527L18.2671 37.5867C16.8785 36.1932 15.975 34.3607 15.5057 32.4585L18.0472 33.049C16.2019 30.7735 15.476 27.868 14.8929 25.0545C14.7943 25.2232 14.7561 25.4494 14.7017 25.6394L14.3858 26.748C13.758 28.9911 13.1167 31.2688 11.4931 33.0163L14.0779 32.4886C13.4933 34.2083 12.5758 36.02 11.2639 37.3009C10.7638 37.7893 10.1958 38.1966 9.65089 38.6322C10.3035 38.4787 10.9553 38.385 11.6164 38.2825C12.3813 38.1639 13.1267 38.0541 13.9021 38.0273C12.6228 40.367 10.8606 42.3181 8.91403 44.1161C9.1931 44.1015 9.52514 43.9782 9.79882 43.9088C11.4618 43.4869 13.0689 42.8803 14.6971 42.3461C14.6597 42.5138 13.9228 43.3567 13.7681 43.5575L8.37851 50.3614L5.16731 54.2848C3.96627 50.6059 3.41951 46.9023 3.27928 43.0474C3.23052 41.7066 3.30266 40.3636 3.41015 39.0275C3.93461 32.5091 6.13715 26.1003 9.75735 20.6488C11.0301 18.7322 12.5059 16.9188 14.077 15.241C18.6006 10.4103 24.5571 6.67612 30.8745 4.71618C34.3474 3.63876 37.9478 3.07717 41.5781 2.9632Z" fill="white"/>
<path d="M47.4562 7.18445L47.6192 7.19953C47.7202 7.27798 47.8061 7.34422 47.8405 7.47618C47.8769 7.61576 47.8391 7.72356 47.7571 7.83226C47.5199 8.14706 47.179 8.44049 46.8981 8.71983C46.7715 8.84576 46.6583 9.00761 46.4747 9.03418C46.3007 9.00473 46.216 8.96847 46.089 8.84505C46.0325 8.7096 46.0308 8.6534 46.0539 8.50844C46.2748 8.17758 46.624 7.9012 46.905 7.61845C47.0695 7.45311 47.2233 7.24333 47.4562 7.18445Z" fill="black"/>
<path d="M38.923 7.18449C39.0476 7.15999 39.1793 7.16807 39.2854 7.24733C39.4452 7.3668 39.5928 7.54148 39.7356 7.68384C39.993 7.94038 40.4754 8.30526 40.5272 8.66557C40.4859 8.83396 40.4295 8.90335 40.3075 9.02462L40.1532 9.04086C40.0338 9.04149 39.9614 9.00083 39.878 8.92139L38.9948 8.00124C38.9183 7.91875 38.7413 7.75161 38.6996 7.65153C38.6878 7.62343 38.6825 7.52155 38.6852 7.49866C38.7032 7.34903 38.8117 7.26842 38.923 7.18449Z" fill="black"/>
<path d="M39.9515 14.545L40.076 14.55C40.2031 14.5639 40.3146 14.6355 40.3882 14.7389C40.4488 14.8241 40.4773 14.9443 40.4591 15.0472C40.4208 15.2638 39.3501 16.283 39.1146 16.4558C39.0726 16.4768 39.0512 16.4906 39.0017 16.4995C38.8862 16.5201 38.7519 16.4604 38.6757 16.3746C38.5894 16.2773 38.5829 16.1363 38.6152 16.0158C38.6768 15.7855 39.7266 14.7019 39.9515 14.545Z" fill="black"/>
<path d="M46.3868 14.545L46.5419 14.5243C46.7393 14.5765 46.8838 14.7711 47.0194 14.9161C47.3042 15.2206 47.6405 15.5337 47.8859 15.869C47.9915 16.0134 47.992 16.1234 47.9671 16.2954C47.8719 16.4177 47.8348 16.458 47.6863 16.503C47.5223 16.4847 47.4188 16.4602 47.3003 16.3397L46.2052 15.24C46.1151 15.133 46.0601 15.0244 46.0921 14.8816C46.1291 14.716 46.25 14.6269 46.3868 14.545Z" fill="black"/>
<path d="M43.1237 5.20966C43.3222 5.19287 43.397 5.22775 43.5479 5.3443C43.6592 5.54465 43.6275 5.78414 43.6292 6.00827C43.6325 6.47548 43.672 6.99332 43.6033 7.45371C43.5177 7.58853 43.4784 7.63036 43.3329 7.69625L43.2761 7.69356C43.0822 7.67022 42.9866 7.57408 42.8756 7.42283C42.7743 6.9768 42.8233 6.4262 42.8246 5.96537C42.8251 5.79598 42.8044 5.58235 42.8782 5.42518C42.9388 5.29619 42.9971 5.26346 43.1237 5.20966Z" fill="black"/>
<path d="M43.1163 15.9812C43.2103 15.9636 43.3006 15.9704 43.3958 15.9727C43.4779 16.0194 43.5492 16.0553 43.601 16.1387C43.7682 16.4081 43.6758 17.2778 43.6728 17.6254C43.6714 17.7914 43.6917 18.0033 43.6405 18.1625C43.5961 18.3003 43.5327 18.3324 43.4133 18.4048C43.348 18.4151 43.2858 18.4196 43.2197 18.4125C43.1199 18.4018 43.0184 18.3468 42.9575 18.2687C42.7773 18.0378 42.857 17.1876 42.8564 16.8644C42.8561 16.6895 42.8322 16.4804 42.8696 16.3116C42.9092 16.1333 42.9631 16.0768 43.1163 15.9812Z" fill="black"/>
<path d="M47.5916 11.3584C47.6895 11.3429 47.6481 11.346 47.7453 11.3441L48.9944 11.3384C49.1912 11.3383 49.4554 11.3086 49.641 11.3692C49.7131 11.3927 49.7616 11.4414 49.8142 11.4931C49.8705 11.6128 49.9016 11.719 49.8654 11.8521C49.8284 11.9881 49.7068 12.0508 49.5964 12.1235L49.4589 12.1404C49.0188 12.1682 48.5627 12.1488 48.1211 12.15C47.9427 12.1504 47.6692 12.1819 47.5057 12.1214C47.4663 12.1069 47.3877 12.018 47.3522 11.9868C47.3011 11.8642 47.2559 11.7379 47.3058 11.6053C47.3624 11.4547 47.4598 11.4226 47.5916 11.3584Z" fill="black"/>
<path d="M36.8498 11.3584C36.885 11.3474 36.9012 11.3409 36.9416 11.3366C37.2931 11.2995 37.6784 11.3265 38.0322 11.3266C38.2881 11.3266 38.5826 11.2964 38.8315 11.3375C38.924 11.3528 38.9873 11.406 39.056 11.4652C39.13 11.6098 39.1622 11.71 39.115 11.8715C39.0761 12.0044 38.9971 12.0591 38.8827 12.1214C38.7786 12.1444 38.6842 12.1607 38.577 12.1631L37.3139 12.1707C37.2025 12.1703 36.9451 12.1871 36.8485 12.1413C36.8145 12.1253 36.7402 12.0634 36.7136 12.0316C36.6172 11.9164 36.6022 11.7725 36.6247 11.6277C36.6453 11.495 36.7467 11.4256 36.8498 11.3584Z" fill="black"/>
<path d="M27.8734 16.6926C28.1785 16.675 28.5253 16.7011 28.814 16.8025C29.3998 17.0082 30.019 17.4907 30.2822 18.0613L30.3053 18.1135L30.4343 18.1036C31.2243 18.0487 31.7909 18.0594 32.4177 18.6261C32.8986 19.061 33.0527 19.5271 33.0887 20.1573L34.0596 20.1454C34.2902 20.1436 34.5945 20.1053 34.7865 20.2597C34.8917 20.3444 34.9514 20.491 34.947 20.6263C34.9412 20.8065 34.878 20.8818 34.7669 21.0078C34.5186 21.093 34.2673 21.0702 34.0079 21.0708L32.8078 21.0704L29.4506 21.0757L24.2596 21.0823L22.9361 21.0849C22.8007 21.0849 22.5175 21.1112 22.3956 21.0619C22.359 21.0471 22.2733 20.9902 22.243 20.9583C22.1539 20.8645 22.127 20.7645 22.1249 20.6374C22.1219 20.4619 22.2008 20.36 22.3135 20.2346C22.7803 20.1239 23.3387 20.1825 23.8187 20.1838C23.8751 19.7343 23.9668 19.3414 24.2828 18.9937C24.6697 18.5679 25.1289 18.4448 25.6849 18.4243C25.8565 18.1455 25.9118 17.8648 26.1305 17.5986C26.5877 17.0423 27.1655 16.7737 27.8734 16.6926Z" fill="black"/>
<path d="M27.7859 17.5369C28.2042 17.5183 28.6023 17.5555 28.9675 17.7808C29.4011 18.0483 29.5994 18.5385 29.7022 19.0145C29.7215 19.1044 29.7501 19.1101 29.8155 19.171C30.1218 19.1571 30.3756 19.0215 30.6579 18.9205C30.9487 18.8163 31.3013 18.898 31.5694 19.0339C32.0379 19.2713 32.1782 19.6954 32.3297 20.1604C32.0133 20.1949 31.6771 20.1726 31.3584 20.1732L29.608 20.1751L25.8498 20.1823C25.6051 20.1816 24.9072 20.2477 24.725 20.1326C24.7211 19.9407 24.7484 19.7989 24.875 19.6472C25.2619 19.184 25.7994 19.2126 26.3465 19.1792C26.4568 18.8664 26.5283 18.5042 26.7107 18.2252C26.9786 17.8157 27.3249 17.6414 27.7859 17.5369Z" fill="white"/>
<path d="M58.4199 16.687C58.8436 16.6449 59.2749 16.6507 59.6805 16.7914C60.3103 17.0097 60.8719 17.429 61.1657 18.039C61.205 18.1206 61.3773 18.0651 61.4645 18.0551C62.0919 17.9834 62.5869 18.0525 63.1065 18.4391C63.716 18.8925 63.9447 19.4607 64.0568 20.187C64.48 20.1829 65.1705 20.0792 65.5344 20.3035C65.602 20.3926 65.6506 20.4602 65.6583 20.5778C65.6682 20.7276 65.6185 20.8365 65.5178 20.9401C65.4638 20.9955 65.4257 21.0199 65.3468 21.0318C64.9538 21.0914 64.4796 21.0504 64.0791 21.0547L60.8426 21.0605L56.1208 21.0682L54.5057 21.0733C54.2118 21.0736 53.8756 21.1087 53.5951 21.0174C53.4904 20.918 53.3979 20.8509 53.385 20.6938C53.3721 20.5373 53.4164 20.4013 53.5097 20.2794C53.8139 20.1056 54.2597 20.1593 54.6047 20.1572C54.6663 19.7164 54.7567 19.3358 55.0416 18.9781C55.3153 18.6343 55.7351 18.3781 56.1735 18.3266L56.211 18.3228L56.5192 17.8146C56.979 17.1545 57.6466 16.8256 58.4199 16.687Z" fill="black"/>
<path d="M58.6653 17.4983C58.9837 17.4755 59.324 17.5308 59.617 17.6556C60.2735 17.9351 60.3634 18.3103 60.6321 18.8984C60.6807 19.0047 60.7605 19.0924 60.8778 19.1228C61.1094 19.1829 61.3533 18.9962 61.5596 18.9148C61.8506 18.8002 62.1593 18.8903 62.4295 19.02C62.8943 19.2432 63.0711 19.703 63.2367 20.1555L60.2731 20.1538L55.4306 20.1483C55.4736 19.9784 55.544 19.7965 55.6395 19.6495C55.7999 19.4028 56.0889 19.26 56.3718 19.2125L56.5277 19.1865C57.053 19.0713 57.0269 18.6205 57.305 18.2469C57.649 17.7849 58.1141 17.581 58.6653 17.4983Z" fill="white"/>
<path d="M43.1193 8.12403C44.0197 8.06227 44.9415 8.43981 45.6216 9.0142C46.3822 9.65645 46.8427 10.6115 46.9236 11.5982C46.9959 12.4782 46.6328 13.5457 46.057 14.2099C45.3567 15.0178 44.4495 15.412 43.3929 15.482C42.5045 15.5611 41.5427 15.2123 40.8643 14.6416C40.1331 14.0266 39.6536 13.0629 39.5807 12.1105C39.5066 11.1446 39.7827 10.1509 40.425 9.40772C41.1571 8.56063 42.0239 8.20841 43.1193 8.12403Z" fill="black"/>
<path d="M42.8861 9.01431C43.5378 8.94394 44.1944 9.07553 44.7414 9.44185C45.3776 9.86795 45.8256 10.5066 45.9664 11.2616C46.1072 12.0176 45.9539 12.8276 45.5042 13.4567C45.0717 14.062 44.4071 14.4449 43.6804 14.5681C43.0131 14.6785 42.2566 14.5198 41.6935 14.1429C41.0995 13.7452 40.6106 13.0502 40.4907 12.3409C40.359 11.5605 40.513 10.8164 40.9748 10.1662C41.4481 9.49984 42.0868 9.14627 42.8861 9.01431Z" fill="white"/>
<path d="M15.8626 71.3953C15.261 71.3953 14.6954 71.2767 14.1658 71.0395C13.6362 70.798 13.1702 70.4654 12.7677 70.0417C12.3695 69.618 12.0559 69.1287 11.8272 68.5737C11.6026 68.0145 11.4903 67.4171 11.4903 66.7816C11.4903 66.1418 11.6026 65.5445 11.8272 64.9895C12.0559 64.4302 12.3695 63.9409 12.7677 63.5215C13.1702 63.0978 13.6362 62.7673 14.1658 62.5301C14.6954 62.2886 15.261 62.1678 15.8626 62.1678C16.5828 62.1678 17.2459 62.3352 17.8517 62.6699C18.4576 63.0003 18.9596 63.4431 19.3579 63.9981L17.6547 64.9132C17.4344 64.659 17.1696 64.4556 16.8603 64.3031C16.5511 64.1506 16.2185 64.0743 15.8626 64.0743C15.5237 64.0743 15.2038 64.1443 14.903 64.2841C14.6064 64.4239 14.3437 64.6188 14.115 64.8687C13.8904 65.1145 13.7146 65.4004 13.5875 65.7267C13.4604 66.0529 13.3968 66.4045 13.3968 66.7816C13.3968 67.1544 13.4604 67.5039 13.5875 67.8302C13.7146 68.1564 13.8904 68.4445 14.115 68.6944C14.3437 68.9402 14.6064 69.1351 14.903 69.2791C15.2038 69.4189 15.5237 69.4888 15.8626 69.4888C16.2185 69.4888 16.5511 69.4126 16.8603 69.26C17.1696 69.1033 17.4344 68.8957 17.6547 68.6373L19.3579 69.5651C18.9596 70.1159 18.4576 70.5586 17.8517 70.8933C17.2459 71.228 16.5828 71.3953 15.8626 71.3953ZM23.221 62.3331H25.369L28.5974 71.2301H26.5765L26.0681 69.832H22.522L22.0136 71.2301H19.9927L23.221 62.3331ZM23.221 67.9255H25.369L24.2887 64.9768L23.221 67.9255ZM29.3574 71.2301L31.0859 62.3331H32.7128L34.7083 67.5823L36.7038 62.3331H38.3307L40.0592 71.2301H38.1146L37.1868 66.4257L35.3692 71.2301H34.0474L32.2299 66.4257L31.302 71.2301H29.3574ZM41.3227 71.2301V62.3331H44.6781C45.1654 62.3331 45.606 62.4581 46 62.708C46.3982 62.9537 46.7139 63.2842 46.9469 63.6994C47.1799 64.1104 47.2964 64.5616 47.2964 65.053C47.2964 65.553 47.1757 66.0084 46.9342 66.4194C46.6969 66.8303 46.3792 67.1587 45.9809 67.4044C45.5827 67.6501 45.1484 67.773 44.6781 67.773H43.2292V71.2301H41.3227ZM43.2292 65.8665H44.4621C44.6315 65.8665 44.7862 65.8241 44.926 65.7394C45.0658 65.6504 45.1781 65.5339 45.2628 65.3898C45.3475 65.2458 45.3899 65.0869 45.3899 64.9132C45.3899 64.7395 45.3475 64.5806 45.2628 64.4366C45.1781 64.2925 45.0658 64.1781 44.926 64.0934C44.7862 64.0044 44.6315 63.96 44.4621 63.96H43.2292V65.8665ZM51.8252 71.3953C51.3252 71.3953 50.8465 71.317 50.3889 71.1602C49.9314 70.9992 49.531 70.7704 49.1878 70.4739C48.8447 70.1731 48.5968 69.8151 48.4443 69.3999L50.2364 68.7389C50.2788 68.8618 50.372 68.9804 50.516 69.0948C50.6643 69.2092 50.8507 69.3045 51.0753 69.3808C51.2998 69.4528 51.5498 69.4888 51.8252 69.4888C52.0794 69.4888 52.3187 69.4528 52.5433 69.3808C52.7678 69.3045 52.95 69.2007 53.0898 69.0694C53.2296 68.9381 53.2995 68.7855 53.2995 68.6118C53.2995 68.4339 53.2254 68.2877 53.0771 68.1733C52.9331 68.0547 52.7466 67.9615 52.5179 67.8937C52.2933 67.8217 52.0624 67.7687 51.8252 67.7348C51.1812 67.6416 50.6029 67.4891 50.0902 67.2773C49.5818 67.0612 49.1794 66.7646 48.8828 66.3876C48.5905 66.0105 48.4443 65.5318 48.4443 64.9513C48.4443 64.3963 48.601 63.9112 48.9146 63.496C49.2281 63.0766 49.6412 62.7504 50.1538 62.5174C50.6707 62.2844 51.2278 62.1678 51.8252 62.1678C52.3251 62.1678 52.8038 62.2483 53.2614 62.4093C53.7232 62.5661 54.1257 62.7949 54.4689 63.0957C54.812 63.3965 55.0577 63.7566 55.206 64.176L53.4139 64.8242C53.3716 64.7014 53.2762 64.5849 53.1279 64.4747C52.9839 64.3603 52.7996 64.2671 52.5751 64.1951C52.3505 64.1231 52.1005 64.0871 51.8252 64.0871C51.5794 64.0828 51.3443 64.1188 51.1198 64.1951C50.8952 64.2714 50.7109 64.3752 50.5669 64.5065C50.4228 64.6378 50.3508 64.7861 50.3508 64.9513C50.3508 65.1801 50.4186 65.3517 50.5542 65.4661C50.6897 65.5763 50.8677 65.6546 51.088 65.7012C51.3125 65.7478 51.5583 65.7902 51.8252 65.8283C52.4352 65.9173 52.9966 66.0762 53.5092 66.305C54.0219 66.5337 54.4328 66.8388 54.7421 67.2201C55.0514 67.6014 55.206 68.0653 55.206 68.6118C55.206 69.1668 55.0493 69.6541 54.7358 70.0735C54.4265 70.4887 54.0155 70.8128 53.5029 71.0458C52.9902 71.2788 52.431 71.3953 51.8252 71.3953ZM56.7927 71.2301V62.3331H58.6992V71.2301H56.7927ZM60.4126 71.2301V62.3331H63.3613C63.9756 62.3331 64.5497 62.4496 65.0835 62.6826C65.6216 62.9114 66.094 63.2312 66.5007 63.6422C66.9116 64.0489 67.2315 64.5213 67.4603 65.0594C67.6933 65.5932 67.8098 66.1673 67.8098 66.7816C67.8098 67.3959 67.6933 67.9721 67.4603 68.5102C67.2315 69.044 66.9116 69.5164 66.5007 69.9273C66.094 70.334 65.6216 70.6539 65.0835 70.8869C64.5497 71.1157 63.9756 71.2301 63.3613 71.2301H60.4126ZM62.3191 69.3236H63.3613C63.7045 69.3236 64.0286 69.2579 64.3336 69.1266C64.6387 68.9953 64.9098 68.8131 65.1471 68.5801C65.3843 68.347 65.5686 68.078 65.7 67.773C65.8355 67.4637 65.9033 67.1332 65.9033 66.7816C65.9033 66.4299 65.8355 66.1016 65.7 65.7966C65.5686 65.4915 65.3843 65.2225 65.1471 64.9895C64.9141 64.7522 64.645 64.5679 64.34 64.4366C64.0349 64.3052 63.7087 64.2396 63.3613 64.2396H62.3191V69.3236ZM68.766 71.2301V62.3331H74.4346V64.2396H70.6725V65.5106H73.5704V67.4171H70.6725V69.3236H74.4346V71.2301H68.766Z" fill="black"/>
</svg>
