<svg width="25" height="25" viewBox="0 0 25 25" fill="none" xmlns="http://www.w3.org/2000/svg">
<path fill-rule="evenodd" clip-rule="evenodd" d="M15.2101 14.688L14.9301 14.418C15.9101 13.278 16.5001 11.798 16.5001 10.188C16.5001 6.59799 13.5901 3.68799 10.0001 3.68799C6.41006 3.68799 3.50006 6.59799 3.50006 10.188C3.50006 13.778 6.41006 16.688 10.0001 16.688C11.6101 16.688 13.0901 16.098 14.2301 15.118L14.5001 15.398V16.188L18.793 20.4723C19.1836 20.8622 19.8162 20.8618 20.2065 20.4716L20.2837 20.3944C20.6739 20.0041 20.6742 19.3715 20.2844 18.9809L16.0001 14.688H15.2101ZM5.50006 10.188C5.50006 7.69799 7.51006 5.68799 10.0001 5.68799C12.4901 5.68799 14.5001 7.69799 14.5001 10.188C14.5001 12.678 12.4901 14.688 10.0001 14.688C7.51006 14.688 5.50006 12.678 5.50006 10.188Z" fill="white"/>
<mask id="mask0_542_301" style="mask-type:luminance" maskUnits="userSpaceOnUse" x="3" y="3" width="18" height="18">
<path fill-rule="evenodd" clip-rule="evenodd" d="M15.2101 14.688L14.9301 14.418C15.9101 13.278 16.5001 11.798 16.5001 10.188C16.5001 6.59799 13.5901 3.68799 10.0001 3.68799C6.41006 3.68799 3.50006 6.59799 3.50006 10.188C3.50006 13.778 6.41006 16.688 10.0001 16.688C11.6101 16.688 13.0901 16.098 14.2301 15.118L14.5001 15.398V16.188L18.793 20.4723C19.1836 20.8622 19.8162 20.8618 20.2065 20.4716L20.2837 20.3944C20.6739 20.0041 20.6742 19.3715 20.2844 18.9809L16.0001 14.688H15.2101ZM5.50006 10.188C5.50006 7.69799 7.51006 5.68799 10.0001 5.68799C12.4901 5.68799 14.5001 7.69799 14.5001 10.188C14.5001 12.678 12.4901 14.688 10.0001 14.688C7.51006 14.688 5.50006 12.678 5.50006 10.188Z" fill="white"/>
</mask>
<g mask="url(#mask0_542_301)">
<rect x="0.500061" y="0.687988" width="24" height="24" fill="white"/>
</g>
</svg>
