<svg width="84" height="85" viewBox="0 0 84 85" fill="none" xmlns="http://www.w3.org/2000/svg">
<g clip-path="url(#clip0_542_297)">
<path d="M77.9368 63.3724V11.3412H5.7493V63.3724H0.593048V76.3802H83.093V63.3724H77.9368ZM8.32742 13.9427H75.3587V63.3724H8.32742V13.9427ZM46.2001 65.974L44.911 68.5756H38.7751L37.486 65.974H46.2001ZM80.5149 73.7787H3.17117V65.974H34.5985L37.1766 71.1771H46.5095L49.0876 65.974H80.5149V73.7787ZM10.9055 60.7709H72.7805V16.5443H10.9055V60.7709ZM13.4837 19.1459H70.2024V58.1693H13.4837V19.1459ZM51.7173 33.8187L49.8868 31.9976L40.554 41.6234L36.3001 37.3568L34.4954 39.1779L40.554 45.3176L51.7173 33.8187ZM21.218 37.3568H22.5071C22.849 37.3568 23.1769 37.4939 23.4186 37.7378C23.6604 37.9817 23.7962 38.3126 23.7962 38.6576C23.7962 39.0026 23.6604 39.3334 23.4186 39.5774C23.1769 39.8213 22.849 39.9584 22.5071 39.9584H21.218V50.3646H62.468V39.9584H61.179C60.8371 39.9584 60.5092 39.8213 60.2675 39.5774C60.0257 39.3334 59.8899 39.0026 59.8899 38.6576C59.8899 38.3126 60.0257 37.9817 60.2675 37.7378C60.5092 37.4939 60.8371 37.3568 61.179 37.3568H62.468V26.9506H21.218V37.3568ZM23.7962 29.5521H59.8899V34.9894C59.1316 35.2508 58.4732 35.745 58.0071 36.4028C57.5409 37.0605 57.2903 37.8489 57.2903 38.6576C57.2903 39.4662 57.5409 40.2547 58.0071 40.9124C58.4732 41.5702 59.1316 42.0644 59.8899 42.3258V47.7631H23.7962V42.3258C24.5545 42.0644 25.2129 41.5702 25.679 40.9124C26.1452 40.2547 26.3958 39.4662 26.3958 38.6576C26.3958 37.8489 26.1452 37.0605 25.679 36.4028C25.2129 35.745 24.5545 35.2508 23.7962 34.9894V29.5521Z" fill="black"/>
</g>
<defs>
<clipPath id="clip0_542_297">
<rect x="0.593109" y="0.934967" width="82.5" height="83.25" fill="white"/>
</clipPath>
</defs>
</svg>
